<svg width="238.81" height="164.22" viewBox="0 0 238.81 164.22" xmlns="http://www.w3.org/2000/svg" xmlns:xlink="http://www.w3.org/1999/xlink" id="Layer_1" overflow="hidden"><path d="M376.75 302C406.308 300.022 431.874 322.38 433.852 351.938 435.83 381.497 413.472 407.062 383.914 409.041 354.355 411.019 328.79 388.661 326.812 359.102 325.439 338.599 335.901 319.113 353.75 308.93 360.795 304.913 368.658 302.543 376.75 302ZM378.37 306.56C351.329 307.635 330.28 330.428 331.356 357.468 332.431 384.509 355.223 405.558 382.264 404.483 409.304 403.407 430.353 380.615 429.278 353.574 428.623 337.106 419.734 322.071 405.62 313.56 397.416 308.606 387.936 306.171 378.36 306.56Z" fill="#0D392E" transform="translate(-264.6 -301.89)"/><path d="M366.52 315.17C371.755 313.442 377.266 312.706 382.77 313 383.348 312.973 383.924 313.072 384.46 313.29 390.501 318.093 395.282 324.295 398.39 331.36 401.757 339.512 403 348.386 402 357.15 401.384 363.525 399.859 369.778 397.47 375.72L401.77 375.72C402.19 374.63 402.57 373.53 403.01 372.45 408.016 373.086 412.66 375.394 416.19 379 412.673 382.63 408.017 384.942 403 385.55 402.59 384.48 402.18 383.42 401.8 382.35 388.62 382.35 375.43 382.35 362.25 382.35 361.59 382.394 360.956 382.623 360.42 383.01 358.97 383.74 357.54 384.5 356.09 385.23 355.559 385.475 354.973 385.578 354.39 385.53 352.69 385.53 350.99 385.53 349.28 385.53 345.691 381.703 342.786 377.289 340.69 372.48L352.34 372.48C353.169 372.395 354.007 372.483 354.8 372.74 356.733 373.573 358.667 374.417 360.6 375.27 362.06 376.13 363.81 375.62 365.42 375.75 365.173 371.618 363.979 367.597 361.93 364 359.752 360.522 356.719 357.661 353.12 355.69 348.296 353.096 343.092 351.283 337.7 350.32 338.419 344.622 340.29 339.131 343.2 334.18 346.994 335.043 350.725 336.159 354.37 337.52 358.28 338.912 361.981 340.833 365.37 343.23L366.46 342.7C364.27 340.256 361.803 338.075 359.11 336.2 355.279 333.406 351.271 330.864 347.11 328.59 350.607 324.317 354.904 320.768 359.76 318.14 363.083 319.496 366.189 321.333 368.98 323.59 373.223 326.994 377.161 330.762 380.75 334.85L382.15 334.48C378.55 326.94 372.82 320.6 366.52 315.17ZM386 360.42C383.211 361.308 381.669 364.288 382.557 367.078 383.445 369.867 386.425 371.409 389.215 370.521 392.004 369.633 393.545 366.652 392.658 363.863 392.325 362.818 391.676 361.901 390.8 361.24 389.426 360.207 387.639 359.902 386 360.42Z" fill="#0D392E" transform="translate(-264.6 -301.89)"/><path d="M268.11 434.36C269.585 433.18 271.444 432.588 273.33 432.7 273.33 436.42 273.33 440.14 273.33 443.86 273.36 444.76 274.114 445.465 275.014 445.434 275.039 445.433 275.065 445.432 275.09 445.43L297.62 445.43C299.503 445.371 301.338 446.033 302.75 447.28 304.083 448.557 304.834 450.324 304.83 452.17 304.83 454.43 304.83 456.687 304.83 458.94 304.813 461.174 303.765 463.274 301.99 464.63 300.66 465.612 299.043 466.126 297.39 466.09L264.6 466.09C266.09 463.71 267.6 461.32 269.06 458.94 277.76 458.94 286.46 458.94 295.16 458.94 296.055 459.04 296.861 458.395 296.96 457.5 296.966 457.45 296.969 457.4 296.97 457.35 296.97 455.75 296.97 454.15 296.97 452.55L273.07 452.55C271.253 452.625 269.465 452.078 268 451 266.453 449.761 265.546 447.892 265.53 445.91 265.53 443.877 265.53 441.84 265.53 439.8 265.551 437.696 266.495 435.708 268.11 434.36Z" fill="#0D392E" transform="translate(-264.6 -301.89)"/><path d="M276.67 432.71 304.09 432.71C302.67 435 301.2 437.26 299.8 439.56 293.54 439.63 287.27 439.56 281.01 439.56Z" fill="#0D392E" transform="translate(-264.6 -301.89)"/><path d="M313.45 432.72 321.45 432.72C321.45 436.993 321.45 441.263 321.45 445.53 325.18 445.53 328.92 445.53 332.65 445.53 337.04 441.26 341.41 436.95 345.83 432.7 349.48 432.7 353.14 432.7 356.83 432.7 350.977 438.333 345.123 443.967 339.27 449.6 345.057 455.093 350.84 460.59 356.62 466.09 352.92 466.09 349.23 466.09 345.53 466.09 341.043 461.757 336.557 457.423 332.07 453.09 328.56 453.09 325.07 453.09 321.53 453.09 321.53 457.43 321.53 461.763 321.53 466.09L313.53 466.09C313.477 454.97 313.45 443.847 313.45 432.72Z" fill="#0D392E" transform="translate(-264.6 -301.89)"/><path d="M368.48 433C369.551 432.798 370.641 432.71 371.73 432.74 377.73 432.74 383.73 432.74 389.73 432.74 393.356 432.76 396.782 434.409 399.06 437.23 400.702 439.313 401.597 441.887 401.6 444.54 401.6 447.85 401.6 451.16 401.6 454.47 401.547 457.978 399.93 461.279 397.19 463.47 394.995 465.17 392.296 466.089 389.52 466.08L372.86 466.08C371.665 466.124 370.468 466.077 369.28 465.94 363.38 465.201 358.964 460.166 359 454.22 359 450.91 359 447.6 359 444.3 359.061 441.019 360.489 437.913 362.94 435.73 364.519 434.356 366.428 433.415 368.48 433ZM369.78 440.37C368.118 440.848 366.975 442.371 366.98 444.1 366.98 447.7 366.98 451.3 366.98 454.9 367.061 456.973 368.765 458.612 370.84 458.61L389.77 458.61C391.833 458.607 393.529 456.981 393.62 454.92 393.62 451.247 393.62 447.58 393.62 443.92 393.518 441.859 391.814 440.242 389.75 440.25L372.21 440.25C371.402 440.183 370.589 440.217 369.79 440.35Z" fill="#0D392E" transform="translate(-264.6 -301.89)"/><path d="M410.53 432.72 439.53 432.72C441.862 432.701 444.153 433.338 446.14 434.56 449.44 436.622 451.507 440.182 451.66 444.07 451.66 446.32 451.66 448.57 451.66 450.83 451.66 453.09 451.85 455.61 451.09 457.89 449.893 461.646 446.886 464.547 443.09 465.61 440.91 466.28 438.61 466.09 436.36 466.11L410.54 466.11C410.533 454.977 410.53 443.847 410.53 432.72ZM418.53 440.21C418.53 446.337 418.53 452.463 418.53 458.59L439.76 458.59C441.329 458.614 442.757 457.69 443.38 456.25 443.663 455.452 443.772 454.603 443.7 453.76 443.7 450.46 443.7 447.16 443.7 443.86 443.588 441.79 441.863 440.176 439.79 440.2Z" fill="#0D392E" transform="translate(-264.6 -301.89)"/><path d="M473.61 432.72 484.61 432.72C490.87 443.833 497.133 454.96 503.4 466.1 500.4 466.1 497.33 466.1 494.3 466.1 493.15 464.1 492.04 462.1 490.89 460.1L475 460.1 470.86 453.54 463.8 466.12C460.8 466.12 457.87 466.12 454.91 466.12 461.13 454.98 467.363 443.847 473.61 432.72ZM471 453.16 487 453.16C484.34 448.41 481.65 443.68 479 438.92 476.34 443.65 473.71 448.42 471 453.16Z" fill="#0D392E" transform="translate(-264.6 -301.89)"/></svg>